<svg width="50" height="50" viewBox="0 0 50 50" fill="none" xmlns="http://www.w3.org/2000/svg">
<circle cx="25" cy="25" r="25" fill="#242424" fill-opacity="0.1"/>
<path d="M12.4 22.75C14.3856 22.75 16 20.732 16 18.25C16 15.768 14.3856 13.75 12.4 13.75C10.4144 13.75 8.8 15.768 8.8 18.25C8.8 20.732 10.4144 22.75 12.4 22.75ZM37.6 22.75C39.5856 22.75 41.2 20.732 41.2 18.25C41.2 15.768 39.5856 13.75 37.6 13.75C35.6144 13.75 34 15.768 34 18.25C34 20.732 35.6144 22.75 37.6 22.75ZM39.4 25H35.8C34.81 25 33.9156 25.4992 33.2631 26.3078C35.53 27.8617 37.1388 30.6672 37.4875 34H41.2C42.1956 34 43 32.9945 43 31.75V29.5C43 27.018 41.3856 25 39.4 25ZM25 25C28.4819 25 31.3 21.4773 31.3 17.125C31.3 12.7727 28.4819 9.25 25 9.25C21.5181 9.25 18.7 12.7727 18.7 17.125C18.7 21.4773 21.5181 25 25 25ZM29.32 27.25H28.8531C27.6831 27.9531 26.3837 28.375 25 28.375C23.6162 28.375 22.3225 27.9531 21.1469 27.25H20.68C17.1025 27.25 14.2 30.8781 14.2 35.35V37.375C14.2 39.2383 15.4094 40.75 16.9 40.75H33.1C34.5906 40.75 35.8 39.2383 35.8 37.375V35.35C35.8 30.8781 32.8975 27.25 29.32 27.25ZM16.7369 26.3078C16.0844 25.4992 15.19 25 14.2 25H10.6C8.61437 25 7 27.018 7 29.5V31.75C7 32.9945 7.80437 34 8.8 34H12.5069C12.8612 30.6672 14.47 27.8617 16.7369 26.3078Z" fill="#242424"/>
</svg>
