<svg width="50" height="50" viewBox="0 0 50 50" fill="none" xmlns="http://www.w3.org/2000/svg">
<circle cx="25" cy="25" r="25" fill="#242424" fill-opacity="0.1"/>
<path d="M14.875 35.125C12.9625 35.125 11.5 33.6625 11.5 31.75V18.25C11.5 16.3375 12.9625 14.875 14.875 14.875C16.7875 14.875 18.25 16.3375 18.25 18.25V31.75C18.25 33.6625 16.7875 35.125 14.875 35.125Z" fill="#242424"/>
<path d="M35.125 35.125C33.2125 35.125 31.75 33.6625 31.75 31.75V18.25C31.75 16.3375 33.2125 14.875 35.125 14.875C37.0375 14.875 38.5 16.3375 38.5 18.25V31.75C38.5 33.6625 37.0375 35.125 35.125 35.125Z" fill="#242424"/>
<path d="M32.875 26.125H17.125C16.45 26.125 16 25.675 16 25C16 24.325 16.45 23.875 17.125 23.875H32.875C33.55 23.875 34 24.325 34 25C34 25.675 33.55 26.125 32.875 26.125Z" fill="#242424"/>
<path d="M9.25 18.475C7.9 18.925 7 20.1625 7 21.625V28.375C7 29.8375 7.9 31.075 9.25 31.525V18.475Z" fill="#242424"/>
<path d="M40.75 18.475V31.525C42.1 31.075 43 29.8375 43 28.375V21.625C43 20.1625 42.1 18.925 40.75 18.475Z" fill="#242424"/>
</svg>
